<svg width="73" height="32" viewBox="0 0 73 32" fill="none" xmlns="http://www.w3.org/2000/svg">
<path d="M2.955 23.733H0.874001V0.780001H7.883C13.606 0.780001 15.565 4.085 15.565 7.666C15.565 11.247 13.606 14.552 7.883 14.552H2.956L2.955 23.733ZM2.955 12.624H8.158C12.473 12.624 13.299 9.869 13.299 7.666C13.299 5.463 12.472 2.708 8.158 2.708H2.955V12.624ZM23.193 10.023C21.143 10.023 19.796 10.39 18.602 10.788V8.951C19.949 8.37 21.724 8.125 23.193 8.125C27.784 8.125 28.978 10.206 28.978 13.266V23.732H27.784L27.325 22.508C25.948 23.518 24.234 24.038 22.704 24.038C18.695 24.038 17.348 21.681 17.348 19.11C17.348 16.509 18.787 14.581 22.796 14.336L26.836 14.091V13.234C26.835 11.002 26.04 10.023 23.193 10.023ZM22.642 15.991C20.469 16.205 19.52 17.338 19.52 19.112C19.52 20.489 19.857 22.142 22.764 22.142C24.417 22.142 25.518 21.682 26.834 20.918V15.593L22.642 15.991ZM35.71 19.449C35.373 19.785 35.128 20.214 35.128 20.581C35.128 21.346 35.495 21.683 36.291 21.774L41.494 22.386C44.371 22.692 45.687 23.825 45.687 26.487C45.687 30.221 41.953 31.69 37.73 31.69C33.445 31.69 30.875 30.435 30.875 27.069C30.875 24.988 32.314 23.61 34.028 23.029V22.998C33.446 22.6 33.049 21.988 33.049 20.978C33.049 20.122 33.569 19.418 34.212 18.897C32.376 17.887 31.764 16.02 31.764 13.878C31.764 10.726 33.11 8.124 37.732 8.124C38.681 8.124 39.477 8.246 40.181 8.43H45.384V9.593L42.813 10.328C43.456 11.307 43.7 12.531 43.7 13.878C43.7 17.031 42.353 19.632 37.732 19.632C36.965 19.633 36.291 19.571 35.71 19.449ZM36.597 23.58C34.577 24.04 32.863 24.988 32.863 26.947C32.863 29.212 34.577 29.855 37.729 29.855C40.79 29.855 43.666 29.09 43.666 26.488C43.666 24.927 42.931 24.315 41.065 24.1L36.597 23.58ZM41.708 13.879C41.708 11.859 41.31 9.992 37.729 9.992C34.148 9.992 33.751 11.859 33.751 13.879C33.751 15.899 34.149 17.765 37.729 17.765C41.309 17.765 41.708 15.899 41.708 13.879ZM53.206 8.125C58.409 8.125 59.021 11.675 59.021 16.082V17.061H48.921C49.044 19.723 49.748 22.142 53.206 22.142C55.409 22.142 56.756 21.928 58.256 21.285V23.121C56.542 23.886 54.706 24.039 53.206 24.039C48.034 24.039 46.779 20.489 46.779 16.082C46.779 11.675 48.033 8.125 53.206 8.125ZM48.921 15.317H56.878C56.878 12.593 56.725 10.022 53.205 10.022C49.655 10.023 49.013 12.563 48.921 15.317ZM67.191 14.95C71.537 15.348 72.578 16.817 72.578 19.326C72.578 21.682 71.078 24.039 66.427 24.039C64.958 24.039 62.846 23.671 61.867 23.274V21.438C62.816 21.774 64.285 22.142 66.458 22.142C69.641 22.142 70.498 20.795 70.498 19.357C70.498 17.949 70.069 16.97 67.04 16.725C62.602 16.327 61.684 14.766 61.684 12.655C61.684 10.482 63.092 8.126 67.407 8.126C68.845 8.126 70.467 8.309 71.814 8.891V10.728C70.621 10.33 69.427 10.024 67.376 10.024C64.346 10.024 63.703 11.157 63.703 12.656C63.703 14.001 64.253 14.705 67.191 14.95Z" fill="white"/>
</svg>
